<svg width="484" height="176" viewBox="0 0 484 176" fill="none" xmlns="http://www.w3.org/2000/svg">
<path d="M110.421 80.1357C49.4373 80.1358 0.000274658 101.474 0 127.797C0 154.12 49.4371 175.459 110.421 175.459C162.371 175.459 205.942 159.973 217.711 139.113L126.359 111.438L200.112 99.9902C180.067 87.9654 147.362 80.1357 110.421 80.1357Z" fill="#809076"/>
<path d="M398.528 84C445.437 84 483.465 100.414 483.465 120.661C483.465 140.909 445.437 157.323 398.528 157.323C358.568 157.323 325.053 145.412 316 129.366L386.269 108.078L329.538 99.2725C344.957 90.0231 370.113 84 398.528 84Z" fill="#809076"/>
<path d="M238.441 9C332.478 9.00007 408.711 41.9045 408.711 82.4941C408.711 123.084 332.479 155.989 238.441 155.989C158.334 155.989 91.1472 132.111 73 99.9443L213.864 57.2686L100.139 39.6172C131.049 21.0751 181.478 9 238.441 9Z" fill="#284239"/>
<path d="M242.128 89.1088C207.361 90.6392 141.392 45.2224 173.628 32.1088C191.688 24.7621 223.128 38.6088 223.128 38.6088C223.128 38.6088 216.866 2.44652 232.128 0.108837C247.01 -2.17055 253.628 32.1088 253.628 32.1088C253.628 32.1088 283.46 10.0407 304.628 12.6088C342.925 17.2552 280.669 87.4124 242.128 89.1088Z" fill="#BA6830"/>
</svg>
