<svg width="163" height="107" viewBox="0 0 163 107" fill="none" xmlns="http://www.w3.org/2000/svg">
<path d="M82.5254 35C36.9479 35.0001 0 50.9482 0 70.6211C7.62939e-05 90.294 36.9479 106.242 82.5254 106.242C121.352 106.242 153.916 94.6685 162.711 79.0781L94.4375 58.3945L149.556 49.8389C134.574 40.8525 110.133 35 82.5254 35Z" fill="#809076"/>
<path d="M61.058 73.8211C37.3231 68.6853 0.861232 26.3305 24.9428 23.2001C38.4342 21.4463 57.1955 36.3692 57.1955 36.3692C57.1955 36.3692 59.3852 10.8534 70.1001 11.9837C80.5479 13.0858 78.9322 37.3941 78.9322 37.3941C78.9322 37.3941 102.98 27.794 116.81 33.2828C141.831 43.2134 87.3688 79.5143 61.058 73.8211Z" fill="#F8D794"/>
</svg>
